<svg width="32" height="32" viewBox="0 0 32 32" fill="none" xmlns="http://www.w3.org/2000/svg">
<g clip-path="url(#clip0)">
<path fill-rule="evenodd" clip-rule="evenodd" d="M22.0275 15.507H9.82071C9.50173 15.507 9.24072 15.2668 9.24072 14.9731V7.59833C9.24072 7.30455 9.50173 7.06428 9.82071 7.06428H22.0275C22.3464 7.06428 22.6074 7.30455 22.6074 7.59833V14.9731C22.6074 15.2668 22.3464 15.507 22.0275 15.507Z" fill="#FFDDBB"/>
<path fill-rule="evenodd" clip-rule="evenodd" d="M22.0275 15.7038H9.82067C9.38311 15.7038 9.0271 15.3759 9.0271 14.973V7.59831C9.0271 7.19534 9.38311 6.86752 9.82067 6.86752H22.0275C22.465 6.86752 22.821 7.19534 22.821 7.59831V14.973C22.821 15.3759 22.465 15.7038 22.0275 15.7038ZM9.82067 7.26098C9.6187 7.26098 9.4544 7.41233 9.4544 7.59831V14.973C9.4544 15.159 9.6187 15.3103 9.82067 15.3103H22.0275C22.2295 15.3103 22.3937 15.159 22.3937 14.973V7.59831C22.3937 7.41233 22.2295 7.26098 22.0275 7.26098H9.82067Z" fill="#F7931E"/>
<path fill-rule="evenodd" clip-rule="evenodd" d="M9.5647 15.2782L16.0686 8.03064L22.4935 15.2782" fill="#FFCC99"/>
<path fill-rule="evenodd" clip-rule="evenodd" d="M22.4937 15.4749C22.4317 15.4749 22.3703 15.4503 22.328 15.4026L16.0676 8.34063L9.72944 15.4035C9.65431 15.4873 9.51964 15.4991 9.42862 15.4298C9.33768 15.3606 9.32486 15.2366 9.40006 15.1529L15.9039 7.90323C15.9445 7.85798 16.0048 7.82965 16.0686 7.82965H16.069C16.1332 7.82965 16.1936 7.8585 16.2341 7.90408L22.6591 15.1527C22.7337 15.2369 22.7201 15.3614 22.6287 15.4301C22.589 15.4599 22.5412 15.4749 22.4937 15.4749Z" fill="#F7931E"/>
<path fill-rule="evenodd" clip-rule="evenodd" d="M22.6552 7.64917C22.6552 11.0269 19.8992 13.994 16.1928 13.994C12.4864 13.994 9.31616 11.0269 9.31616 7.64917" fill="#FFCC99"/>
<path fill-rule="evenodd" clip-rule="evenodd" d="M16.1929 14.1907C14.3747 14.1907 12.5596 13.475 11.213 12.2269C9.87182 10.9838 9.10254 9.31522 9.10254 7.64917C9.10254 7.54051 9.19818 7.45244 9.31619 7.45244C9.43419 7.45244 9.52984 7.54051 9.52984 7.64917C9.52984 9.21213 10.2538 10.7796 11.5162 11.9496C12.7831 13.1238 14.4877 13.7973 16.1929 13.7973C17.8954 13.7973 19.4804 13.1432 20.6561 11.9557C21.8075 10.7926 22.4416 9.26315 22.4416 7.64917C22.4416 7.54051 22.5373 7.45244 22.6553 7.45244C22.7733 7.45244 22.8689 7.54051 22.8689 7.64917C22.8689 9.36145 22.1952 10.985 20.9719 12.2208C19.7142 13.4911 18.017 14.1907 16.1929 14.1907Z" fill="#F7931E"/>
<path fill-rule="evenodd" clip-rule="evenodd" d="M14.3288 9.14956C14.3288 9.38131 14.1248 9.56912 13.8732 9.56912C13.6215 9.56912 13.4175 9.38131 13.4175 9.14956C13.4175 8.91781 13.6215 8.72993 13.8732 8.72993C14.1248 8.72993 14.3288 8.91781 14.3288 9.14956Z" fill="#F7931E"/>
<path fill-rule="evenodd" clip-rule="evenodd" d="M18.5542 9.14956C18.5542 9.38131 18.3501 9.56912 18.0985 9.56912C17.8469 9.56912 17.6428 9.38131 17.6428 9.14956C17.6428 8.91781 17.8469 8.72993 18.0985 8.72993C18.3501 8.72993 18.5542 8.91781 18.5542 9.14956Z" fill="#F7931E"/>
<path fill-rule="evenodd" clip-rule="evenodd" d="M16.7291 11.6184C16.7291 12.0585 16.4255 12.4152 16.051 12.4152C15.6766 12.4152 15.373 12.0585 15.373 11.6184C15.373 11.1783 15.6766 10.8216 16.051 10.8216C16.4255 10.8216 16.7291 11.1783 16.7291 11.6184Z" fill="#F7931E"/>
<path fill-rule="evenodd" clip-rule="evenodd" d="M24.4316 13.2321V8.19956C24.4316 7.4373 25.1089 5.82181 25.9367 5.82181C26.7646 5.82181 27.4419 7.4373 27.4419 8.19956V13.2321C27.4419 13.2321 27.4419 13.7661 25.9367 13.7661C24.3488 13.7661 24.4316 13.2321 24.4316 13.2321Z" fill="#FFB0D0"/>
<path fill-rule="evenodd" clip-rule="evenodd" d="M25.9367 13.9628C25.137 13.9628 24.6064 13.8301 24.3596 13.5681C24.2218 13.4218 24.2143 13.2809 24.2179 13.2247V8.19955C24.2179 7.45702 24.903 5.62506 25.9367 5.62506C26.9705 5.62506 27.6555 7.45702 27.6555 8.19955V13.2321C27.6555 13.3069 27.6072 13.9628 25.9367 13.9628ZM24.6456 13.2527C24.6649 13.3431 24.9283 13.5694 25.9367 13.5694C26.9357 13.5694 27.2059 13.3224 27.2282 13.2224V8.19955C27.2282 7.83507 27.0558 7.26501 26.8089 6.81325C26.5369 6.31559 26.2109 6.01852 25.9367 6.01852C25.6626 6.01852 25.3366 6.31559 25.0645 6.81325C24.8176 7.26501 24.6452 7.83507 24.6452 8.19955V13.2321C24.6452 13.2495 24.6486 13.2434 24.6456 13.2527Z" fill="#FF7BAC"/>
<path fill-rule="evenodd" clip-rule="evenodd" d="M25.8256 8.59137C24.9301 8.59137 24.4356 8.39136 24.4053 8.37871C24.2978 8.33385 24.2502 8.21726 24.2989 8.1183C24.3475 8.01967 24.4734 7.97574 24.5809 8.02C24.596 8.02616 25.6028 8.42068 27.3684 8.00879C27.4832 7.98229 27.599 8.04597 27.6279 8.15122C27.6569 8.25654 27.5877 8.36356 27.4733 8.39025C26.828 8.54081 26.276 8.59137 25.8256 8.59137Z" fill="#FF7BAC"/>
<path fill-rule="evenodd" clip-rule="evenodd" d="M25.886 12.8639C24.9709 12.8639 24.4432 12.6658 24.4108 12.6532C24.3019 12.6111 24.2508 12.4957 24.2965 12.3956C24.3422 12.2956 24.4672 12.2483 24.5757 12.2903C24.5924 12.2964 25.6803 12.6941 27.4514 12.2811C27.5662 12.2545 27.682 12.3182 27.7109 12.4235C27.7399 12.5288 27.6706 12.6358 27.5563 12.6625C26.91 12.8132 26.3485 12.8639 25.886 12.8639Z" fill="#FF7BAC"/>
<path fill-rule="evenodd" clip-rule="evenodd" d="M27.3103 11.5915C26.9442 11.5915 26.6475 11.087 26.6475 10.4648C26.6475 9.8425 26.9442 9.33809 27.3103 9.33809" fill="#FFB0D0"/>
<path fill-rule="evenodd" clip-rule="evenodd" d="M27.3105 11.7882C26.8109 11.7882 26.4341 11.2193 26.4341 10.4649C26.4341 9.71033 26.8109 9.14139 27.3105 9.14139C27.4285 9.14139 27.5241 9.22946 27.5241 9.33812C27.5241 9.44678 27.4285 9.53485 27.3105 9.53485C27.1028 9.53485 26.8614 9.9411 26.8614 10.4649C26.8614 10.9886 27.1028 11.3947 27.3105 11.3947C27.4285 11.3947 27.5241 11.4828 27.5241 11.5915C27.5241 11.7001 27.4285 11.7882 27.3105 11.7882Z" fill="#FF7BAC"/>
<path fill-rule="evenodd" clip-rule="evenodd" d="M24.4928 14.7349C24.4928 14.7349 23.4433 17.2978 25.9983 18.4166C25.9983 18.4166 28.5532 17.7159 27.5038 14.7349" fill="#F2F2F2"/>
<path fill-rule="evenodd" clip-rule="evenodd" d="M25.9982 18.6134C25.9667 18.6134 25.9353 18.607 25.9064 18.5943C23.2053 17.4113 24.2815 14.6928 24.2927 14.6655C24.3343 14.5639 24.4575 14.5123 24.5681 14.5509C24.6784 14.5892 24.7341 14.7026 24.6925 14.8042C24.6879 14.8158 24.4449 15.4282 24.5014 16.1557C24.5735 17.0829 25.0812 17.7715 26.011 18.2034C26.2317 18.1235 26.8927 17.8377 27.267 17.1775C27.624 16.5478 27.6352 15.7465 27.3005 14.7956C27.2641 14.6922 27.3256 14.5813 27.4378 14.5478C27.5497 14.5143 27.6705 14.5709 27.7069 14.6743C28.0794 15.7324 28.0577 16.6379 27.6423 17.3657C27.1035 18.3096 26.1016 18.5936 26.0592 18.6052C26.0392 18.6107 26.0187 18.6134 25.9982 18.6134Z" fill="#E6E6E6"/>
<path fill-rule="evenodd" clip-rule="evenodd" d="M25.2113 14.5341C25.2113 14.5341 24.6562 15.8896 26.0076 16.4813C26.0076 16.4813 27.3589 16.1107 26.8038 14.5341" fill="#E6E6E6"/>
<path fill-rule="evenodd" clip-rule="evenodd" d="M26.0075 16.6781C25.976 16.6781 25.9447 16.6717 25.9157 16.659C24.7065 16.1294 24.7954 14.9921 25.0114 14.4647C25.053 14.3631 25.1762 14.3116 25.2866 14.3501C25.3969 14.3884 25.4526 14.5016 25.4112 14.6032C25.3912 14.653 24.9676 15.7446 26.0191 16.2663C26.1501 16.2124 26.4279 16.0698 26.5908 15.7806C26.7652 15.4708 26.7686 15.0719 26.6006 14.5947C26.5642 14.4914 26.6257 14.3805 26.7379 14.347C26.8498 14.3135 26.9707 14.37 27.0071 14.4735C27.2127 15.0577 27.1991 15.5608 26.9662 15.9686C26.6618 16.502 26.0926 16.6633 26.0685 16.6699C26.0486 16.6754 26.028 16.6781 26.0075 16.6781Z" fill="#CCCCCC"/>
<path fill-rule="evenodd" clip-rule="evenodd" d="M7.43074 13.2321V8.19956C7.43074 7.4373 6.7534 5.82181 5.92557 5.82181C5.09775 5.82181 4.42041 7.4373 4.42041 8.19956V13.2321C4.42041 13.2321 4.42041 13.7661 5.92557 13.7661C7.51356 13.7661 7.43074 13.2321 7.43074 13.2321Z" fill="#FFB0D0"/>
<path fill-rule="evenodd" clip-rule="evenodd" d="M5.9256 13.9628C4.25507 13.9628 4.20679 13.3069 4.20679 13.2321V8.19955C4.20679 7.45702 4.89182 5.62506 5.9256 5.62506C6.95938 5.62506 7.64441 7.45702 7.64441 8.19955V13.2247C7.64804 13.2809 7.64049 13.4218 7.50276 13.5681C7.256 13.8301 6.72536 13.9628 5.9256 13.9628ZM4.63409 13.2224C4.65645 13.3224 4.92672 13.5694 5.9256 13.5694C6.93403 13.5694 7.19739 13.3431 7.21676 13.2527C7.21369 13.2434 7.21711 13.2495 7.21711 13.2321V8.19955C7.21711 7.83507 7.0447 7.26501 6.79779 6.81325C6.52581 6.31559 6.19978 6.01852 5.9256 6.01852C5.65142 6.01852 5.32539 6.31559 5.05341 6.81325C4.8065 7.26501 4.63409 7.83507 4.63409 8.19955V13.2224Z" fill="#FF7BAC"/>
<path fill-rule="evenodd" clip-rule="evenodd" d="M6.07764 8.59139C5.62712 8.59139 5.07527 8.54083 4.42983 8.39027C4.31546 8.36358 4.24616 8.25656 4.27515 8.15124C4.30413 8.04592 4.42007 7.98205 4.53473 8.0088C6.31949 8.42522 7.31168 8.02441 7.32151 8.02035C7.4289 7.97562 7.5556 8.01936 7.60424 8.11832C7.65295 8.21727 7.60538 8.33387 7.49784 8.37873C7.4675 8.39138 6.97298 8.59139 6.07764 8.59139Z" fill="#FF7BAC"/>
<path fill-rule="evenodd" clip-rule="evenodd" d="M6.1 12.8639C5.63752 12.8639 5.07619 12.8133 4.42983 12.6625C4.31546 12.6358 4.24616 12.5288 4.27515 12.4235C4.3042 12.3181 4.42079 12.2546 4.53473 12.2811C6.31045 12.6954 7.39963 12.2943 7.41046 12.2902C7.51949 12.2489 7.64426 12.2963 7.68949 12.3963C7.73471 12.4964 7.68379 12.6111 7.57533 12.6532C7.54285 12.6657 7.01499 12.8639 6.1 12.8639Z" fill="#FF7BAC"/>
<path fill-rule="evenodd" clip-rule="evenodd" d="M4.67554 11.5915C5.04159 11.5915 5.33835 11.087 5.33835 10.4648C5.33835 9.8425 5.04159 9.33809 4.67554 9.33809" fill="#FFB0D0"/>
<path fill-rule="evenodd" clip-rule="evenodd" d="M4.67556 11.7882C4.55756 11.7882 4.46191 11.7001 4.46191 11.5915C4.46191 11.4828 4.55756 11.3947 4.67556 11.3947C4.88323 11.3947 5.12473 10.9886 5.12473 10.4649C5.12473 9.9411 4.88323 9.53485 4.67556 9.53485C4.55756 9.53485 4.46191 9.44678 4.46191 9.33812C4.46191 9.22946 4.55756 9.14139 4.67556 9.14139C5.17522 9.14139 5.55203 9.71033 5.55203 10.4649C5.55203 11.2193 5.17522 11.7882 4.67556 11.7882Z" fill="#FF7BAC"/>
<path fill-rule="evenodd" clip-rule="evenodd" d="M7.49326 14.7349C7.49326 14.7349 8.54271 17.2978 5.98775 18.4166C5.98775 18.4166 3.43278 17.7159 4.48223 14.7349" fill="#F2F2F2"/>
<path fill-rule="evenodd" clip-rule="evenodd" d="M5.9877 18.6134C5.96719 18.6134 5.94668 18.6107 5.92673 18.6052C5.88429 18.5936 4.88234 18.3096 4.34352 17.3657C3.92818 16.6379 3.90639 15.7324 4.279 14.6743C4.31539 14.5709 4.43631 14.5143 4.54805 14.5478C4.66029 14.5813 4.72182 14.6922 4.68543 14.7956C4.35071 15.7465 4.36189 16.5478 4.7189 17.1774C5.093 17.8374 5.75368 18.1232 5.97481 18.2034C6.90917 17.7694 7.41716 17.0767 7.48538 16.1429C7.53865 15.4135 7.29573 14.8103 7.29331 14.8043C7.25165 14.7027 7.30741 14.5892 7.4178 14.5509C7.52833 14.5123 7.65146 14.5638 7.69305 14.6655C7.7043 14.6928 8.78067 17.4113 6.07942 18.5943C6.05058 18.607 6.01917 18.6134 5.9877 18.6134Z" fill="#E6E6E6"/>
<path fill-rule="evenodd" clip-rule="evenodd" d="M6.77466 14.5341C6.77466 14.5341 7.32972 15.8896 5.97846 16.4813C5.97846 16.4813 4.62712 16.1107 5.18211 14.5341" fill="#E6E6E6"/>
<path fill-rule="evenodd" clip-rule="evenodd" d="M5.97838 16.6781C5.95787 16.6781 5.93736 16.6754 5.91742 16.6699C5.89335 16.6633 5.32418 16.502 5.01966 15.9686C4.78693 15.5608 4.77318 15.0577 4.97893 14.4735C5.01532 14.3701 5.13624 14.3135 5.24798 14.347C5.36022 14.3805 5.42175 14.4914 5.38536 14.5947C5.2165 15.0744 5.22078 15.4751 5.39796 15.7856C5.56105 16.0713 5.83644 16.2127 5.96684 16.2663C7.01949 15.7441 6.59362 14.6505 6.57453 14.603C6.53358 14.5014 6.58956 14.3881 6.69987 14.3501C6.81047 14.3121 6.93297 14.3633 6.97456 14.4647C7.19056 14.9921 7.27944 16.1294 6.07011 16.659C6.04126 16.6717 6.00993 16.6781 5.97838 16.6781Z" fill="#CCCCCC"/>
<path fill-rule="evenodd" clip-rule="evenodd" d="M14.6826 22.1254C14.5646 22.1254 14.469 22.0374 14.469 21.9287V16.8793C14.469 16.7706 14.5646 16.6825 14.6826 16.6825C14.8006 16.6825 14.8963 16.7706 14.8963 16.8793V21.9287C14.8963 22.0374 14.8006 22.1254 14.6826 22.1254Z" fill="#E6E6E6"/>
<path fill-rule="evenodd" clip-rule="evenodd" d="M15.9644 20.7483C15.8464 20.7483 15.7507 20.6602 15.7507 20.5516V17.3383C15.7507 17.2296 15.8464 17.1416 15.9644 17.1416C16.0824 17.1416 16.178 17.2296 16.178 17.3383V20.5516C16.178 20.6602 16.0824 20.7483 15.9644 20.7483Z" fill="#CCCCCC"/>
<path fill-rule="evenodd" clip-rule="evenodd" d="M17.46 18.3875C17.342 18.3875 17.2463 18.2995 17.2463 18.1908V16.3546C17.2463 16.246 17.342 16.1579 17.46 16.1579C17.578 16.1579 17.6736 16.246 17.6736 16.3546V18.1908C17.6736 18.2995 17.578 18.3875 17.46 18.3875Z" fill="#E6E6E6"/>
<path fill-rule="evenodd" clip-rule="evenodd" d="M12.1276 22.078C11.5547 22.078 11.0261 21.731 10.86 21.1994C10.7628 20.8878 10.803 20.5599 10.9735 20.2762C11.144 19.9925 11.4243 19.7869 11.7627 19.6973C11.8764 19.6671 11.9945 19.7275 12.0271 19.8319C12.0597 19.9364 11.9942 20.0454 11.8808 20.0753C11.652 20.1359 11.4626 20.2749 11.3474 20.4666C11.2322 20.6585 11.2049 20.88 11.2707 21.0907C11.3364 21.3013 11.4874 21.4757 11.6956 21.5818C11.904 21.688 12.1447 21.7129 12.3733 21.6525C12.4868 21.6222 12.6051 21.6828 12.6376 21.7872C12.6702 21.8916 12.6047 22.0006 12.4913 22.0306C12.3701 22.0627 12.2478 22.078 12.1276 22.078Z" fill="#CCCCCC"/>
<path fill-rule="evenodd" clip-rule="evenodd" d="M13.3313 24.1777C13.3032 24.1777 13.275 24.177 13.2468 24.1756C12.8381 24.1552 12.4625 23.9896 12.1893 23.7091C11.9159 23.4287 11.7776 23.0671 11.7996 22.6908C11.8217 22.3146 12.0016 21.9687 12.3062 21.7171C12.394 21.6445 12.5292 21.6513 12.6079 21.7321C12.6868 21.813 12.6794 21.9374 12.5917 22.0099C12.3719 22.1914 12.2423 22.4408 12.2264 22.712C12.2104 22.9834 12.3101 23.2442 12.5073 23.4464C12.7044 23.6486 12.9752 23.768 13.2698 23.7827C13.5645 23.7973 13.8476 23.7055 14.0672 23.524C14.1551 23.4514 14.29 23.4581 14.3689 23.539C14.4477 23.6199 14.4404 23.7443 14.3526 23.8168C14.0693 24.051 13.7093 24.1777 13.3313 24.1777Z" fill="#CCCCCC"/>
<path fill-rule="evenodd" clip-rule="evenodd" d="M16.1472 25.5104C16.1387 25.5104 16.1304 25.5103 16.1219 25.5102C14.962 25.4975 14.0294 24.6261 14.0431 23.558C14.0445 23.4501 14.14 23.3714 14.2567 23.3714H14.2593C14.3773 23.3714 14.4718 23.454 14.4704 23.5626C14.4595 24.4138 15.2026 25.1106 16.127 25.1207C16.1337 25.1208 16.1405 25.1189 16.1471 25.1189C17.0624 25.1189 17.8124 24.4245 17.8232 23.5796C17.8247 23.4717 17.9201 23.3714 18.0368 23.3714H18.0394C18.1574 23.3714 18.252 23.4747 18.2505 23.5832C18.2369 24.6436 17.2957 25.5104 16.1472 25.5104Z" fill="#CCCCCC"/>
<path fill-rule="evenodd" clip-rule="evenodd" d="M19.3412 24.4564C19.1918 24.4564 19.0415 24.4385 18.8933 24.4022C18.4455 24.2928 18.0708 24.0292 17.8382 23.6603C17.779 23.5664 17.8138 23.446 17.9158 23.3914C18.0178 23.3369 18.1487 23.3689 18.2078 23.4628C18.3831 23.7409 18.6655 23.9395 19.003 24.0219C19.3402 24.1044 19.6926 24.061 19.9946 23.8996C20.2965 23.7382 20.5122 23.4782 20.6018 23.1674C20.6914 22.8566 20.6442 22.5324 20.4689 22.2543C20.4096 22.1603 20.4443 22.0399 20.5464 21.9854C20.6485 21.9308 20.7792 21.9629 20.8384 22.0568C21.071 22.4257 21.1337 22.8561 21.0148 23.2684C20.8959 23.6808 20.6098 24.0258 20.2091 24.2399C19.941 24.3831 19.6431 24.4564 19.3412 24.4564Z" fill="#CCCCCC"/>
</g>
<defs>
<clipPath id="clip0">
<rect width="24" height="20" fill="white" transform="translate(4 5.6)"/>
</clipPath>
</defs>
</svg>
