<svg width="65" height="65" viewBox="0 0 65 65" fill="none" xmlns="http://www.w3.org/2000/svg">
<path fill-rule="evenodd" clip-rule="evenodd" d="M2.04785 16.937L21.8968 26.1485C28.4949 29.2116 36.1718 29.2116 42.7698 26.1485L62.6188 16.937C64.9487 15.8549 64.8907 12.6252 62.5243 11.622L38.3843 1.39242C34.5261 -0.24181 30.1406 -0.24181 26.2823 1.39242L2.14233 11.622C-0.224131 12.6252 -0.282035 15.8549 2.04785 16.937ZM62.5235 29.482L56.826 27.0679L42.769 33.5914C36.171 36.653 28.4956 36.653 21.8961 33.5914L7.84056 27.0679L2.14309 29.482C-0.224893 30.4852 -0.281273 33.7165 2.04709 34.797L21.8961 44.0101C28.4956 47.0716 36.171 47.0716 42.769 44.0101L62.618 34.797C64.9494 33.7165 64.8915 30.4852 62.5235 29.482ZM56.826 44.9284L62.5235 47.3425C64.8915 48.3457 64.9494 51.5769 62.618 52.6575L42.769 61.8705C36.171 64.9321 28.4956 64.9321 21.8961 61.8705L2.04709 52.6575C-0.281273 51.5769 -0.224893 48.3457 2.14309 47.3425L7.84056 44.9284L21.8961 51.4519C28.4956 54.5135 36.171 54.5135 42.769 51.4519L56.826 44.9284Z" fill="#35363F"/>
</svg>
