<svg width="65" height="64" viewBox="0 0 65 64" fill="none" xmlns="http://www.w3.org/2000/svg">
<path fill-rule="evenodd" clip-rule="evenodd" d="M0.666748 1.66667C0.666748 0.746193 1.41294 0 2.33341 0H63.0001C63.9206 0 64.6667 0.746192 64.6667 1.66667V62.3333C64.6667 63.2538 63.9206 64 63.0001 64H2.33342C1.41294 64 0.666748 63.2538 0.666748 62.3333V1.66667ZM8.66675 34.6667H30.0001V37.3334H8.66675V34.6667ZM56.6667 34.6667H35.3334V37.3334H56.6667V34.6667ZM35.3334 26.6667H56.6667V29.3334H35.3334V26.6667ZM56.6667 18.6667H35.3334V21.3334H56.6667V18.6667ZM35.3334 10.6667H56.6667V13.3334H35.3334V10.6667ZM30.0001 42.6667H8.66675V45.3334H30.0001V42.6667ZM35.3334 42.6667H56.6667V45.3334H35.3334V42.6667ZM30.0001 50.6667H8.66675V53.3334H30.0001V50.6667ZM35.3334 50.6667H56.6667V53.3334H35.3334V50.6667ZM24.0638 11.5557C22.2062 11.5557 20.3531 12.635 19.3333 14.2391C18.3136 12.635 16.4605 11.5557 14.6029 11.5557C11.8799 11.5557 9.66361 13.8748 9.58572 16.7664C9.20346 20.6489 12.4527 24.8379 19.3333 29.3335C26.214 24.8379 29.4632 20.6489 29.0809 16.7664H29.0789C29.003 13.8748 26.7867 11.5557 24.0638 11.5557Z" fill="#35363F"/>
</svg>
