<svg width="63" height="63" viewBox="0 0 63 63" fill="none" xmlns="http://www.w3.org/2000/svg">
<path fill-rule="evenodd" clip-rule="evenodd" d="M4.5 0C2.01472 0 0 2.01472 0 4.5V58.5C0 60.9853 2.01472 63 4.5 63H58.5C60.9853 63 63 60.9853 63 58.5V4.5C63 2.01472 60.9853 0 58.5 0H4.5ZM59.22 20.16H3.77999V7.28004C3.77999 5.34705 5.34699 3.78004 7.27999 3.78004H55.72C57.653 3.78004 59.22 5.34705 59.22 7.28004V20.16ZM11.34 41.58C12.7318 41.58 13.86 40.4518 13.86 39.06C13.86 37.6683 12.7318 36.54 11.34 36.54C9.94824 36.54 8.82 37.6683 8.82 39.06C8.82 40.4518 9.94824 41.58 11.34 41.58ZM23.94 39.06C23.94 40.4518 22.8118 41.58 21.42 41.58C20.0282 41.58 18.9 40.4518 18.9 39.06C18.9 37.6683 20.0282 36.54 21.42 36.54C22.8118 36.54 23.94 37.6683 23.94 39.06ZM31.5 41.58C32.8918 41.58 34.02 40.4518 34.02 39.06C34.02 37.6683 32.8918 36.54 31.5 36.54C30.1082 36.54 28.98 37.6683 28.98 39.06C28.98 40.4518 30.1082 41.58 31.5 41.58ZM54.18 39.06C54.18 40.4518 53.0518 41.58 51.66 41.58C50.2682 41.58 49.14 40.4518 49.14 39.06C49.14 37.6683 50.2682 36.54 51.66 36.54C53.0518 36.54 54.18 37.6683 54.18 39.06ZM11.34 52.92C12.7318 52.92 13.86 51.7917 13.86 50.4C13.86 49.0082 12.7318 47.88 11.34 47.88C9.94824 47.88 8.82 49.0082 8.82 50.4C8.82 51.7917 9.94824 52.92 11.34 52.92ZM23.94 50.4C23.94 51.7917 22.8118 52.92 21.42 52.92C20.0282 52.92 18.9 51.7917 18.9 50.4C18.9 49.0082 20.0282 47.88 21.42 47.88C22.8118 47.88 23.94 49.0082 23.94 50.4ZM31.5 52.92C32.8918 52.92 34.02 51.7917 34.02 50.4C34.02 49.0082 32.8918 47.88 31.5 47.88C30.1082 47.88 28.98 49.0082 28.98 50.4C28.98 51.7917 30.1082 52.92 31.5 52.92ZM44.1 50.4C44.1 51.7917 42.9718 52.92 41.58 52.92C40.1882 52.92 39.06 51.7917 39.06 50.4C39.06 49.0082 40.1882 47.88 41.58 47.88C42.9718 47.88 44.1 49.0082 44.1 50.4ZM41.58 44.1C44.3635 44.1 46.62 41.8435 46.62 39.06C46.62 36.2764 44.3635 34.02 41.58 34.02C38.7965 34.02 36.54 36.2764 36.54 39.06C36.54 41.8435 38.7965 44.1 41.58 44.1ZM54.18 50.4C54.18 51.7917 53.0518 52.92 51.66 52.92C50.2682 52.92 49.14 51.7917 49.14 50.4C49.14 49.0082 50.2682 47.88 51.66 47.88C53.0518 47.88 54.18 49.0082 54.18 50.4Z" fill="#35363F"/>
</svg>
