<svg width="42" height="51" viewBox="0 0 42 51" fill="none" xmlns="http://www.w3.org/2000/svg">
<path fill-rule="evenodd" clip-rule="evenodd" d="M37.9505 20.5171V15.0206L36.432 12.7428C35.0822 9.87452 30.611 3.93546 23.5246 3.12559C17.1052 2.39194 16.1355 1.92414 15.3175 1.52951C15.0067 1.3796 14.7179 1.24026 14.1605 1.10091C12.5408 0.695974 12.3045 1.60708 12.3889 2.11325H10.3642L9.85803 3.12559H8.59261L7.0741 4.64409V5.65643L5.80867 6.92185V8.44036L4.79633 9.4527V11.7305L4.29016 13.249L4.79633 15.0206L5.80867 16.0329C5.90376 16.0059 6.00006 15.9788 6.09753 15.9518C4.89627 17.9832 4.19261 20.8836 4.17093 25.0234C3.57384 24.523 2.96679 24.295 2.51853 24.3847C1.50623 25.144 1 25.6989 1 29.1933C1.25315 31.9772 3.02474 35.7735 4.2902 36.0266C4.99846 36.1683 5.45906 35.9128 5.75857 35.3668C8.39141 42.9978 14.2224 50.1994 21.4999 50.1994C28.4092 50.1994 34.3675 43.7205 37.1063 36.531C39.0989 36.4555 40.4208 34.4222 41.3007 31.1384C42.2832 27.4715 41.0891 25.0719 39.469 24.6378C39.133 24.7065 38.843 24.7889 38.5866 24.9045C38.4631 23.25 38.2482 21.7956 37.9505 20.5171Z" fill="#35363F"/>
<path d="M37.9505 15.0206H38.2036V14.9439L38.161 14.8802L37.9505 15.0206ZM37.9505 20.5171H37.6974V20.5462L37.704 20.5745L37.9505 20.5171ZM36.432 12.7428L36.203 12.8506L36.211 12.8676L36.2214 12.8832L36.432 12.7428ZM23.5246 3.12559L23.4959 3.37704L23.5246 3.12559ZM15.3175 1.52951L15.4274 1.30156L15.4274 1.30156L15.3175 1.52951ZM14.1605 1.10091L14.0991 1.34644L14.0991 1.34644L14.1605 1.10091ZM12.3889 2.11325V2.36633H12.6877L12.6385 2.07164L12.3889 2.11325ZM10.3642 2.11325V1.86016H10.2078L10.1378 2.00007L10.3642 2.11325ZM9.85803 3.12559V3.37867H10.0144L10.0844 3.23877L9.85803 3.12559ZM8.59261 3.12559V2.8725H8.48777L8.41365 2.94663L8.59261 3.12559ZM7.0741 4.64409L6.89514 4.46513L6.82101 4.53926V4.64409H7.0741ZM7.0741 5.65643L7.25305 5.83538L7.32718 5.76126V5.65643H7.0741ZM5.80867 6.92185L5.62971 6.74289L5.55559 6.81702V6.92185H5.80867ZM5.80867 8.44036L5.98763 8.61932L6.06176 8.54519V8.44036H5.80867ZM4.79633 9.4527L4.61738 9.27374L4.54325 9.34787V9.4527H4.79633ZM4.79633 11.7305L5.03643 11.8105L5.04942 11.7715V11.7305H4.79633ZM4.29016 13.249L4.05007 13.1689L4.02531 13.2432L4.04682 13.3185L4.29016 13.249ZM4.79633 15.0206L4.55299 15.0901L4.571 15.1532L4.61738 15.1995L4.79633 15.0206ZM5.80867 16.0329L5.62972 16.2119L5.73486 16.317L5.87788 16.2763L5.80867 16.0329ZM6.09753 15.9518L6.31537 16.0806L6.63497 15.5402L6.02991 15.7079L6.09753 15.9518ZM4.17093 25.0234L4.00836 25.2174L4.42119 25.5634L4.42401 25.0248L4.17093 25.0234ZM2.51853 24.3847L2.4689 24.1365L2.4126 24.1478L2.36667 24.1822L2.51853 24.3847ZM1 29.1933H0.746915V29.2048L0.747955 29.2162L1 29.1933ZM4.2902 36.0266L4.24056 36.2748L4.24056 36.2748L4.2902 36.0266ZM5.75857 35.3668L5.99782 35.2843L5.81147 34.7442L5.53668 35.2451L5.75857 35.3668ZM37.1063 36.531L37.0967 36.2781L36.9294 36.2845L36.8698 36.4409L37.1063 36.531ZM41.3007 31.1384L41.0562 31.0729L41.0562 31.0729L41.3007 31.1384ZM39.469 24.6378L39.5345 24.3933L39.4767 24.3778L39.4182 24.3898L39.469 24.6378ZM38.5866 24.9045L38.3343 24.9234L38.3612 25.2838L38.6907 25.1353L38.5866 24.9045ZM37.6974 15.0206V20.5171H38.2036V15.0206H37.6974ZM36.2214 12.8832L37.7399 15.161L38.161 14.8802L36.6425 12.6024L36.2214 12.8832ZM23.4959 3.37704C26.9738 3.77451 29.8162 5.43122 31.9607 7.35086C34.1069 9.27202 35.542 11.4461 36.203 12.8506L36.661 12.635C35.9721 11.1712 34.4967 8.94163 32.2983 6.97372C30.0982 5.00429 27.1618 3.28654 23.5534 2.87414L23.4959 3.37704ZM15.2075 1.75746C16.0664 2.17179 17.0725 2.64293 23.4959 3.37704L23.5534 2.87414C17.138 2.14095 16.2046 1.67648 15.4274 1.30156L15.2075 1.75746ZM14.0991 1.34644C14.632 1.47966 14.903 1.61054 15.2075 1.75746L15.4274 1.30156C15.1105 1.14867 14.8037 1.00085 14.2219 0.855382L14.0991 1.34644ZM12.6385 2.07164C12.6041 1.8651 12.6424 1.6094 12.8107 1.44817C12.9705 1.29514 13.3266 1.15331 14.0991 1.34644L14.2219 0.855382C13.3746 0.643574 12.8028 0.754834 12.4606 1.08266C12.1269 1.40229 12.0893 1.85523 12.1393 2.15486L12.6385 2.07164ZM10.3642 2.36633H12.3889V1.86016H10.3642V2.36633ZM10.0844 3.23877L10.5906 2.22643L10.1378 2.00007L9.63166 3.01241L10.0844 3.23877ZM8.59261 3.37867H9.85803V2.8725H8.59261V3.37867ZM7.25305 4.82305L8.77156 3.30455L8.41365 2.94663L6.89514 4.46513L7.25305 4.82305ZM7.32718 5.65643V4.64409H6.82101V5.65643H7.32718ZM5.98763 7.10081L7.25305 5.83538L6.89514 5.47747L5.62971 6.74289L5.98763 7.10081ZM6.06176 8.44036V6.92185H5.55559V8.44036H6.06176ZM4.97529 9.63166L5.98763 8.61932L5.62971 8.2614L4.61738 9.27374L4.97529 9.63166ZM5.04942 11.7305V9.4527H4.54325V11.7305H5.04942ZM4.53026 13.329L5.03643 11.8105L4.55624 11.6504L4.05007 13.1689L4.53026 13.329ZM5.03968 14.951L4.53351 13.1794L4.04682 13.3185L4.55299 15.0901L5.03968 14.951ZM5.98763 15.8539L4.97529 14.8416L4.61738 15.1995L5.62972 16.2119L5.98763 15.8539ZM6.02991 15.7079C5.93192 15.7351 5.83509 15.7623 5.73946 15.7895L5.87788 16.2763C5.97244 16.2495 6.0682 16.2226 6.16514 16.1957L6.02991 15.7079ZM4.42401 25.0248C4.44557 20.9093 5.14551 18.0589 6.31537 16.0806L5.87968 15.823C4.64703 17.9075 3.93966 20.8579 3.91785 25.0221L4.42401 25.0248ZM2.56816 24.6329C2.90374 24.5657 3.43284 24.735 4.00836 25.2174L4.33351 24.8295C3.71484 24.3109 3.02985 24.0243 2.4689 24.1365L2.56816 24.6329ZM1.25308 29.1933C1.25308 27.4495 1.38074 26.477 1.61643 25.8527C1.84373 25.2506 2.17613 24.9579 2.67039 24.5871L2.36667 24.1822C1.84863 24.5708 1.42177 24.9352 1.14288 25.6739C0.872376 26.3905 0.746915 27.4428 0.746915 29.1933H1.25308ZM4.33984 35.7784C4.11677 35.7338 3.81717 35.5126 3.47546 35.0855C3.14344 34.6705 2.8051 34.1035 2.49398 33.4502C1.87116 32.1423 1.37535 30.5264 1.25204 29.1704L0.747955 29.2162C0.877799 30.6441 1.39436 32.3183 2.03698 33.6678C2.35859 34.3432 2.71625 34.9468 3.08021 35.4017C3.4345 35.8446 3.8309 36.1928 4.24056 36.2748L4.33984 35.7784ZM5.53668 35.2451C5.40522 35.4847 5.25006 35.6401 5.06917 35.7259C4.88874 35.8115 4.65447 35.8414 4.33984 35.7784L4.24056 36.2748C4.6342 36.3535 4.98436 36.3264 5.28617 36.1832C5.58752 36.0402 5.81242 35.7948 5.98046 35.4885L5.53668 35.2451ZM21.4999 49.9463C17.9496 49.9463 14.7338 48.1901 12.0683 45.4676C9.40284 42.7451 7.30447 39.0714 5.99782 35.2843L5.51933 35.4493C6.84551 39.2931 8.97908 43.0358 11.7067 45.8217C14.4343 48.6078 17.7727 50.4524 21.4999 50.4524V49.9463ZM36.8698 36.4409C35.5122 40.0047 33.3579 43.3878 30.6943 45.8763C28.0304 48.365 24.8723 49.9463 21.4999 49.9463V50.4524C25.0367 50.4524 28.3125 48.7942 31.0398 46.2462C33.7674 43.6979 35.9616 40.2467 37.3428 36.6211L36.8698 36.4409ZM41.0562 31.0729C40.6198 32.7015 40.0796 33.9956 39.4176 34.8869C38.7599 35.7723 37.9958 36.244 37.0967 36.2781L37.1159 36.7839C38.2094 36.7425 39.1025 36.1598 39.8239 35.1887C40.5409 34.2235 41.1016 32.859 41.5451 31.2039L41.0562 31.0729ZM39.4034 24.8822C40.1106 25.0717 40.7622 25.7013 41.1212 26.7572C41.4797 27.8116 41.5378 29.2755 41.0562 31.0729L41.5451 31.2039C42.0461 29.3343 41.9985 27.765 41.6004 26.5943C41.203 25.4252 40.4474 24.6379 39.5345 24.3933L39.4034 24.8822ZM38.6907 25.1353C38.9235 25.0303 39.1936 24.9524 39.5197 24.8857L39.4182 24.3898C39.0725 24.4606 38.7625 24.5476 38.4826 24.6738L38.6907 25.1353ZM37.704 20.5745C37.9983 21.8381 38.2115 23.2794 38.3343 24.9234L38.839 24.8857C38.7147 23.2207 38.4982 21.7531 38.197 20.4597L37.704 20.5745Z" fill="black"/>
<path fill-rule="evenodd" clip-rule="evenodd" d="M17.9568 23.8785C15.7634 23.2036 10.3136 22.2588 6.06179 23.8785C4.44205 23.8785 4.03711 24.5534 4.03711 24.8909V31.218L5.30253 32.9896C6.82104 34.7612 8.7951 36.3809 13.6543 36.7859C16.9444 36.7859 20.7407 34.255 20.4876 27.9279H23.5246C23.0185 32.2303 23.2716 34.0019 27.574 36.5328C31.8764 37.5451 40.2282 39.3167 38.2036 25.3971C37.8866 25.2703 37.5785 25.1435 37.2761 25.0191C33.9565 23.6532 31.3271 22.5713 25.2962 24.8909C20.6395 24.8909 18.4629 24.216 17.9568 23.8785ZM12.642 35.0143C16.1363 35.0143 18.9691 32.6877 18.9691 29.1933C18.9691 25.699 15.3771 24.3847 11.8827 24.3847C8.38834 24.3847 6.31484 25.699 6.31484 29.1933C6.31484 32.6877 9.14759 35.0143 12.642 35.0143ZM31.1527 35.5204C34.6471 35.5204 37.4799 33.1939 37.4799 29.6995C37.4799 26.2051 33.8879 24.8909 30.3935 24.8909C26.8991 24.8909 24.8256 26.2051 24.8256 29.6995C24.8256 33.1939 27.6584 35.5204 31.1527 35.5204Z" fill="#F9F9FF"/>
<path d="M6.06179 23.8785V24.0285H6.08939L6.11519 24.0187L6.06179 23.8785ZM17.9568 23.8785L18.04 23.7537L18.0218 23.7416L18.0009 23.7352L17.9568 23.8785ZM4.03711 31.218H3.88711V31.2661L3.91505 31.3052L4.03711 31.218ZM5.30253 32.9896L5.18 33.0771L5.18864 33.0872L5.30253 32.9896ZM13.6543 36.7859L13.6418 36.9359H13.6543V36.7859ZM20.4876 27.9279V27.7779H20.3315L20.3377 27.9339L20.4876 27.9279ZM23.5246 27.9279L23.6736 27.9454L23.6933 27.7779H23.5246V27.9279ZM27.574 36.5328L27.4979 36.6621L27.5175 36.6736L27.5396 36.6788L27.574 36.5328ZM38.2036 25.3971L38.352 25.3755L38.3395 25.2899L38.2593 25.2578L38.2036 25.3971ZM37.2761 25.0191L37.3332 24.8804L37.3332 24.8804L37.2761 25.0191ZM25.2962 24.8909V25.0409H25.3241L25.3501 25.0309L25.2962 24.8909ZM6.11519 24.0187C8.21414 23.2191 10.6163 23.0503 12.773 23.1678C14.9289 23.2853 16.8276 23.688 17.9127 24.0219L18.0009 23.7352C16.8926 23.3941 14.9697 22.987 12.7893 22.8683C10.6099 22.7495 8.16126 22.9182 6.00839 23.7384L6.11519 24.0187ZM4.18711 24.8909C4.18711 24.682 4.4702 24.0285 6.06179 24.0285V23.7285C4.41389 23.7285 3.88711 24.4249 3.88711 24.8909H4.18711ZM4.18711 31.218V24.8909H3.88711V31.218H4.18711ZM5.42459 32.9024L4.15917 31.1308L3.91505 31.3052L5.18047 33.0768L5.42459 32.9024ZM13.6668 36.6364C11.252 36.4352 9.56422 35.9329 8.29534 35.2674C7.02742 34.6024 6.16863 33.7696 5.41642 32.892L5.18864 33.0872C5.95494 33.9812 6.84244 34.8441 8.15599 35.5331C9.46857 36.2215 11.1974 36.7316 13.6419 36.9353L13.6668 36.6364ZM20.3377 27.9339C20.463 31.0658 19.5862 33.2385 18.29 34.6272C16.9924 36.0175 15.2619 36.6359 13.6543 36.6359V36.9359C15.3368 36.9359 17.1496 36.2888 18.5093 34.8319C19.8706 33.3734 20.7653 31.1172 20.6375 27.9219L20.3377 27.9339ZM23.5246 27.7779H20.4876V28.0779H23.5246V27.7779ZM27.65 36.4035C25.5071 35.1429 24.4034 34.0883 23.8846 32.8372C23.3637 31.5808 23.4202 30.0995 23.6736 27.9454L23.3757 27.9104C23.1229 30.0587 23.0529 31.6145 23.6075 32.9521C24.1644 34.2952 25.3384 35.3918 27.4979 36.6621L27.65 36.4035ZM38.0551 25.4186C38.5596 28.8869 38.4148 31.3608 37.859 33.1062C37.3049 34.846 36.3421 35.864 35.1951 36.4299C34.0422 36.9987 32.6882 37.1178 31.3447 37.0277C30.002 36.9377 28.6841 36.6399 27.6083 36.3868L27.5396 36.6788C28.6151 36.9318 29.9546 37.2352 31.3246 37.327C32.6939 37.4188 34.1081 37.3007 35.3278 36.6989C36.5535 36.0943 37.5679 35.0086 38.1448 33.1972C38.7199 31.3916 38.8599 28.867 38.352 25.3755L38.0551 25.4186ZM37.219 25.1578C37.5213 25.2822 37.8301 25.4092 38.1478 25.5363L38.2593 25.2578C37.9431 25.1313 37.6357 25.0048 37.3332 24.8804L37.219 25.1578ZM25.3501 25.0309C28.3513 23.8766 30.4932 23.5736 32.2905 23.7224C34.0901 23.8715 35.5569 24.4739 37.219 25.1578L37.3332 24.8804C35.6757 24.1984 34.1679 23.5769 32.3152 23.4235C30.4603 23.2698 28.272 23.5856 25.2424 24.7509L25.3501 25.0309ZM17.8736 24.0033C18.1542 24.1904 18.8514 24.4475 20.0438 24.6589C21.2436 24.8717 22.9609 25.0409 25.2962 25.0409V24.7409C22.9748 24.7409 21.2754 24.5726 20.0962 24.3636C18.9097 24.1532 18.2655 23.9041 18.04 23.7537L17.8736 24.0033ZM18.8191 29.1933C18.8191 32.5888 16.0705 34.8643 12.642 34.8643V35.1643C16.2022 35.1643 19.1191 32.7866 19.1191 29.1933H18.8191ZM11.8827 24.5347C13.6147 24.5347 15.3575 24.861 16.6617 25.6087C17.9585 26.3524 18.8191 27.5092 18.8191 29.1933H19.1191C19.1191 27.3831 18.1836 26.1356 16.8109 25.3485C15.4454 24.5656 13.645 24.2347 11.8827 24.2347V24.5347ZM6.46484 29.1933C6.46484 27.4768 6.97268 26.3244 7.88218 25.5957C8.79851 24.8614 10.1497 24.5347 11.8827 24.5347V24.2347C10.1214 24.2347 8.6886 24.5651 7.69459 25.3616C6.69375 26.1635 6.16484 27.4154 6.16484 29.1933H6.46484ZM12.642 34.8643C9.21343 34.8643 6.46484 32.5888 6.46484 29.1933H6.16484C6.16484 32.7866 9.08175 35.1643 12.642 35.1643V34.8643ZM37.3299 29.6995C37.3299 33.095 34.5813 35.3704 31.1527 35.3704V35.6704C34.713 35.6704 37.6299 33.2927 37.6299 29.6995H37.3299ZM30.3935 25.0409C32.1255 25.0409 33.8683 25.3671 35.1725 26.1149C36.4693 26.8585 37.3299 28.0154 37.3299 29.6995H37.6299C37.6299 27.8892 36.6944 26.6418 35.3217 25.8547C33.9562 25.0717 32.1558 24.7409 30.3935 24.7409V25.0409ZM24.9756 29.6995C24.9756 27.983 25.4835 26.8306 26.393 26.1018C27.3093 25.3676 28.6605 25.0409 30.3935 25.0409V24.7409C28.6321 24.7409 27.1994 25.0712 26.2054 25.8677C25.2045 26.6697 24.6756 27.9216 24.6756 29.6995H24.9756ZM31.1527 35.3704C27.7242 35.3704 24.9756 33.095 24.9756 29.6995H24.6756C24.6756 33.2927 27.5925 35.6704 31.1527 35.6704V35.3704Z" fill="black"/>
</svg>
